<mxfile host="app.diagrams.net" modified="2023-10-30T11:45:39.461Z" agent="Mozilla/5.0 (Macintosh; Intel Mac OS X 10_15_7) AppleWebKit/537.36 (KHTML, like Gecko) Chrome/118.0.0.0 Safari/537.36" etag="D19Ej_MohDzWSFMGFmto" version="22.0.8" type="google">
  <diagram name="第 1 页" id="2RB9jYR7KU2eyjj4wRc6">
    <mxGraphModel grid="1" page="1" gridSize="10" guides="1" tooltips="1" connect="1" arrows="1" fold="1" pageScale="1" pageWidth="827" pageHeight="1169" math="0" shadow="0">
      <root>
        <mxCell id="0" />
        <mxCell id="1" parent="0" />
        <mxCell id="YcBNcORiWokhXHiEyNua-2" value="&lt;br/&gt;&#x9;&#x9;&lt;br/&gt;&#x9;&lt;br/&gt;&#x9;&lt;br/&gt;&#x9;&#x9;&lt;div title=&quot;Page 22&quot; class=&quot;page&quot;&gt;&lt;br/&gt;&lt;span style=&quot;white-space: pre;&quot;&gt;&amp;nbsp;&amp;nbsp;&amp;nbsp;&amp;nbsp;&lt;/span&gt;&lt;span style=&quot;white-space: pre;&quot;&gt;&amp;nbsp;&amp;nbsp;&amp;nbsp;&amp;nbsp;&lt;/span&gt;&lt;span style=&quot;white-space: pre;&quot;&gt;&amp;nbsp;&amp;nbsp;&amp;nbsp;&amp;nbsp;&lt;/span&gt;&lt;div class=&quot;layoutArea&quot;&gt;&lt;br/&gt;&lt;span style=&quot;white-space: pre;&quot;&gt;&amp;nbsp;&amp;nbsp;&amp;nbsp;&amp;nbsp;&lt;/span&gt;&lt;span style=&quot;white-space: pre;&quot;&gt;&amp;nbsp;&amp;nbsp;&amp;nbsp;&amp;nbsp;&lt;/span&gt;&lt;span style=&quot;white-space: pre;&quot;&gt;&amp;nbsp;&amp;nbsp;&amp;nbsp;&amp;nbsp;&lt;/span&gt;&lt;span style=&quot;white-space: pre;&quot;&gt;&amp;nbsp;&amp;nbsp;&amp;nbsp;&amp;nbsp;&lt;/span&gt;&lt;div class=&quot;column&quot;&gt;&lt;br/&gt;&lt;span style=&quot;white-space: pre;&quot;&gt;&amp;nbsp;&amp;nbsp;&amp;nbsp;&amp;nbsp;&lt;/span&gt;&lt;span style=&quot;white-space: pre;&quot;&gt;&amp;nbsp;&amp;nbsp;&amp;nbsp;&amp;nbsp;&lt;/span&gt;&lt;span style=&quot;white-space: pre;&quot;&gt;&amp;nbsp;&amp;nbsp;&amp;nbsp;&amp;nbsp;&lt;/span&gt;&lt;span style=&quot;white-space: pre;&quot;&gt;&amp;nbsp;&amp;nbsp;&amp;nbsp;&amp;nbsp;&lt;/span&gt;&lt;span style=&quot;white-space: pre;&quot;&gt;&amp;nbsp;&amp;nbsp;&amp;nbsp;&amp;nbsp;&lt;/span&gt;&lt;p&gt;功能描述:使用者可以輸入註冊資料進行會員註冊。&amp;nbsp;&lt;/p&gt;&lt;br/&gt;&lt;span style=&quot;white-space: pre;&quot;&gt;&amp;nbsp;&amp;nbsp;&amp;nbsp;&amp;nbsp;&lt;/span&gt;&lt;span style=&quot;white-space: pre;&quot;&gt;&amp;nbsp;&amp;nbsp;&amp;nbsp;&amp;nbsp;&lt;/span&gt;&lt;span style=&quot;white-space: pre;&quot;&gt;&amp;nbsp;&amp;nbsp;&amp;nbsp;&amp;nbsp;&lt;/span&gt;&lt;span style=&quot;white-space: pre;&quot;&gt;&amp;nbsp;&amp;nbsp;&amp;nbsp;&amp;nbsp;&lt;/span&gt;&lt;/div&gt;&lt;br/&gt;&lt;span style=&quot;white-space: pre;&quot;&gt;&amp;nbsp;&amp;nbsp;&amp;nbsp;&amp;nbsp;&lt;/span&gt;&lt;span style=&quot;white-space: pre;&quot;&gt;&amp;nbsp;&amp;nbsp;&amp;nbsp;&amp;nbsp;&lt;/span&gt;&lt;span style=&quot;white-space: pre;&quot;&gt;&amp;nbsp;&amp;nbsp;&amp;nbsp;&amp;nbsp;&lt;/span&gt;&lt;/div&gt;&lt;br/&gt;&lt;span style=&quot;white-space: pre;&quot;&gt;&amp;nbsp;&amp;nbsp;&amp;nbsp;&amp;nbsp;&lt;/span&gt;&lt;span style=&quot;white-space: pre;&quot;&gt;&amp;nbsp;&amp;nbsp;&amp;nbsp;&amp;nbsp;&lt;/span&gt;&lt;/div&gt;" style="text;html=1;strokeColor=none;fillColor=none;align=center;verticalAlign=middle;whiteSpace=wrap;rounded=0;" vertex="1" parent="1">
          <mxGeometry x="-30" y="100" width="380" height="30" as="geometry" />
        </mxCell>
        <mxCell id="YcBNcORiWokhXHiEyNua-5" style="edgeStyle=orthogonalEdgeStyle;rounded=0;orthogonalLoop=1;jettySize=auto;html=1;entryX=0;entryY=0.5;entryDx=0;entryDy=0;endArrow=open;endFill=0;" edge="1" parent="1" source="YcBNcORiWokhXHiEyNua-3" target="YcBNcORiWokhXHiEyNua-4">
          <mxGeometry relative="1" as="geometry" />
        </mxCell>
        <mxCell id="YcBNcORiWokhXHiEyNua-3" value="" style="ellipse;whiteSpace=wrap;html=1;aspect=fixed;strokeColor=default;fillColor=#000000;" vertex="1" parent="1">
          <mxGeometry x="20" y="200" width="20" height="20" as="geometry" />
        </mxCell>
        <mxCell id="YcBNcORiWokhXHiEyNua-7" style="edgeStyle=orthogonalEdgeStyle;rounded=0;orthogonalLoop=1;jettySize=auto;html=1;exitX=1;exitY=0.5;exitDx=0;exitDy=0;endArrow=open;endFill=0;" edge="1" parent="1" source="YcBNcORiWokhXHiEyNua-4">
          <mxGeometry relative="1" as="geometry">
            <mxPoint x="210" y="210" as="targetPoint" />
            <Array as="points">
              <mxPoint x="210" y="210" />
            </Array>
          </mxGeometry>
        </mxCell>
        <mxCell id="YcBNcORiWokhXHiEyNua-4" value="會員註冊" style="rounded=1;whiteSpace=wrap;html=1;" vertex="1" parent="1">
          <mxGeometry x="80" y="190" width="80" height="40" as="geometry" />
        </mxCell>
        <mxCell id="YcBNcORiWokhXHiEyNua-13" style="edgeStyle=orthogonalEdgeStyle;rounded=0;orthogonalLoop=1;jettySize=auto;html=1;entryX=0.5;entryY=0;entryDx=0;entryDy=0;endArrow=open;endFill=0;" edge="1" parent="1" source="YcBNcORiWokhXHiEyNua-8" target="YcBNcORiWokhXHiEyNua-12">
          <mxGeometry relative="1" as="geometry" />
        </mxCell>
        <mxCell id="YcBNcORiWokhXHiEyNua-8" value="使用者輸入資料" style="rounded=1;whiteSpace=wrap;html=1;" vertex="1" parent="1">
          <mxGeometry x="210" y="190" width="90" height="40" as="geometry" />
        </mxCell>
        <mxCell id="YcBNcORiWokhXHiEyNua-14" style="edgeStyle=orthogonalEdgeStyle;rounded=0;orthogonalLoop=1;jettySize=auto;html=1;endArrow=open;endFill=0;" edge="1" parent="1" source="YcBNcORiWokhXHiEyNua-12">
          <mxGeometry relative="1" as="geometry">
            <mxPoint x="380" y="320" as="targetPoint" />
          </mxGeometry>
        </mxCell>
        <mxCell id="YcBNcORiWokhXHiEyNua-22" style="edgeStyle=orthogonalEdgeStyle;rounded=0;orthogonalLoop=1;jettySize=auto;html=1;endArrow=open;endFill=0;" edge="1" parent="1" source="YcBNcORiWokhXHiEyNua-12">
          <mxGeometry relative="1" as="geometry">
            <mxPoint x="255" y="320" as="targetPoint" />
          </mxGeometry>
        </mxCell>
        <mxCell id="YcBNcORiWokhXHiEyNua-12" value="" style="rhombus;whiteSpace=wrap;html=1;" vertex="1" parent="1">
          <mxGeometry x="235" y="270" width="40" height="20" as="geometry" />
        </mxCell>
        <mxCell id="YcBNcORiWokhXHiEyNua-17" value="[帳戶已存在]" style="text;html=1;strokeColor=none;fillColor=none;align=center;verticalAlign=middle;whiteSpace=wrap;rounded=0;fontSize=8;" vertex="1" parent="1">
          <mxGeometry x="290" y="255" width="60" height="30" as="geometry" />
        </mxCell>
        <mxCell id="YcBNcORiWokhXHiEyNua-18" value="[帳戶不存在]" style="text;html=1;strokeColor=none;fillColor=none;align=center;verticalAlign=middle;whiteSpace=wrap;rounded=0;fontSize=8;" vertex="1" parent="1">
          <mxGeometry x="190" y="286" width="60" height="30" as="geometry" />
        </mxCell>
        <mxCell id="YcBNcORiWokhXHiEyNua-28" style="edgeStyle=orthogonalEdgeStyle;rounded=0;orthogonalLoop=1;jettySize=auto;html=1;endArrow=open;endFill=0;" edge="1" parent="1" source="YcBNcORiWokhXHiEyNua-24" target="YcBNcORiWokhXHiEyNua-26">
          <mxGeometry relative="1" as="geometry">
            <Array as="points">
              <mxPoint x="385" y="400" />
            </Array>
          </mxGeometry>
        </mxCell>
        <mxCell id="YcBNcORiWokhXHiEyNua-24" value="顯示錯誤訊息" style="rounded=1;whiteSpace=wrap;html=1;" vertex="1" parent="1">
          <mxGeometry x="340" y="320" width="90" height="40" as="geometry" />
        </mxCell>
        <mxCell id="YcBNcORiWokhXHiEyNua-27" style="edgeStyle=orthogonalEdgeStyle;rounded=0;orthogonalLoop=1;jettySize=auto;html=1;entryX=0;entryY=0.5;entryDx=0;entryDy=0;endArrow=open;endFill=0;" edge="1" parent="1" source="YcBNcORiWokhXHiEyNua-25" target="YcBNcORiWokhXHiEyNua-26">
          <mxGeometry relative="1" as="geometry" />
        </mxCell>
        <mxCell id="YcBNcORiWokhXHiEyNua-25" value="註冊成功" style="rounded=1;whiteSpace=wrap;html=1;" vertex="1" parent="1">
          <mxGeometry x="210" y="320" width="90" height="40" as="geometry" />
        </mxCell>
        <mxCell id="YcBNcORiWokhXHiEyNua-29" style="edgeStyle=orthogonalEdgeStyle;rounded=0;orthogonalLoop=1;jettySize=auto;html=1;endArrow=open;endFill=0;" edge="1" parent="1" source="YcBNcORiWokhXHiEyNua-26">
          <mxGeometry relative="1" as="geometry">
            <mxPoint x="320" y="439.9999999999998" as="targetPoint" />
          </mxGeometry>
        </mxCell>
        <mxCell id="YcBNcORiWokhXHiEyNua-26" value="" style="rhombus;whiteSpace=wrap;html=1;" vertex="1" parent="1">
          <mxGeometry x="300" y="390" width="40" height="20" as="geometry" />
        </mxCell>
        <mxCell id="YcBNcORiWokhXHiEyNua-30" value="" style="ellipse;html=1;shape=endState;fillColor=#000000;strokeColor=#000000;" vertex="1" parent="1">
          <mxGeometry x="305" y="440" width="30" height="30" as="geometry" />
        </mxCell>
      </root>
    </mxGraphModel>
  </diagram>
</mxfile>
